<?xml version="1.0" encoding="UTF-8"?>
<svg id="Layer_2" data-name="Layer 2" xmlns="http://www.w3.org/2000/svg" viewBox="0 0 107.83 107.85">
  <defs>
    <style>
      .cls-1 {
        fill: #ff6333;
      }
    </style>
  </defs>
  <g id="Layer_1-2" data-name="Layer 1">
    <g id="New_Symbol_420" data-name="New Symbol 420">
      <g id="Layer_2-2" data-name="Layer 2">
        <g id="Layer_1-2" data-name="Layer 1-2">
          <rect class="cls-1" x="37.51" y="98.47" width="14.06" height="9.38"/>
          <rect class="cls-1" x="23.45" y="84.38" width="28.13" height="9.38"/>
          <rect class="cls-1" x="14.06" y="70.32" width="37.51" height="9.38"/>
          <rect class="cls-1" y="56.26" width="51.58" height="9.38"/>
          <rect class="cls-1" x="98.45" y="56.28" width="9.38" height="14.06"/>
          <rect class="cls-1" x="84.38" y="56.28" width="9.38" height="28.13"/>
          <rect class="cls-1" x="70.32" y="56.28" width="9.38" height="37.51"/>
          <rect class="cls-1" x="56.28" y="56.28" width="9.38" height="51.58"/>
          <rect class="cls-1" x="56.26" width="14.06" height="9.38"/>
          <rect class="cls-1" x="56.28" y="14.06" width="28.13" height="9.38"/>
          <rect class="cls-1" x="56.26" y="28.15" width="37.51" height="9.38"/>
          <rect class="cls-1" x="56.26" y="42.19" width="51.58" height="9.38"/>
          <rect class="cls-1" y="37.51" width="9.38" height="14.06"/>
          <rect class="cls-1" x="14.06" y="23.45" width="9.38" height="28.13"/>
          <rect class="cls-1" x="28.13" y="14.06" width="9.38" height="37.51"/>
          <rect class="cls-1" x="42.19" width="9.38" height="51.58"/>
        </g>
      </g>
    </g>
  </g>
</svg>