<?xml version="1.0" encoding="UTF-8"?>
<svg id="Layer_2" data-name="Layer 2" xmlns="http://www.w3.org/2000/svg" viewBox="0 0 98.26 113.46">
  <defs>
    <style>
      .cls-1 {
        fill: #73b6ff;
        stroke-width: 0px;
      }
    </style>
  </defs>
  <g id="Layer_1-2" data-name="Layer 1">
    <g>
      <polygon class="cls-1" points="19.75 65.05 19.75 16.95 2.69 26.8 0 28.36 0 53.65 3.85 55.86 19.75 65.05"/>
      <polygon class="cls-1" points="46.43 53.43 46.43 25.03 47.64 24.34 51.84 21.91 69.47 11.74 49.14 0 25.16 13.83 25.16 65.71 42.22 55.86 46.43 53.43"/>
      <polygon class="cls-1" points="46.43 81.83 47.64 81.14 51.84 78.71 66.82 70.06 51.84 61.42 47.64 58.98 46.43 59.67 28.44 70.06 25.16 71.95 23.03 73.18 19.75 71.28 17.63 70.06 0 59.88 0 85.08 20.39 96.87 25.16 94.11 42.22 84.26 46.43 81.83"/>
      <polygon class="cls-1" points="53.04 84.26 51.84 84.95 47.64 87.38 46.43 88.07 25.8 99.99 49.14 113.46 70.97 100.85 73.12 99.61 73.12 72.66 72.22 73.18 53.04 84.26"/>
      <polygon class="cls-1" points="78.52 16.97 74.87 14.85 73.12 15.86 53.04 27.47 72.22 38.54 73.12 39.06 77.63 41.66 78.52 42.18 96.82 52.74 98.26 53.57 98.26 28.36 78.52 16.97"/>
      <polygon class="cls-1" points="91.41 55.86 78.52 48.42 73.12 45.3 72.22 44.78 66.82 41.66 51.84 33.02 51.84 55.17 53.04 55.86 72.22 66.94 73.12 67.45 77.63 70.06 78.52 70.58 78.52 96.49 95.55 86.65 98.26 85.08 98.26 59.82 96.81 58.98 91.41 55.86"/>
    </g>
  </g>
</svg>