<?xml version="1.0" encoding="UTF-8"?>
<svg id="Layer_2" data-name="Layer 2" xmlns="http://www.w3.org/2000/svg" viewBox="0 0 106.73 108.89">
  <defs>
    <style>
      .cls-1 {
        fill: #73b6ff;
        stroke-width: 0px;
      }
    </style>
  </defs>
  <g id="Layer_1-2" data-name="Layer 1">
    <g>
      <path class="cls-1" d="M4.48,47.62l13.79-23.89h36.06l22.76,39.43,4.73-8.19L59.07,15.54H16.74c-1.98,0-3.8,1.05-4.79,2.76L1.35,36.66c-.99,1.71-.99,3.82,0,5.53l3.13,5.43Z"/>
      <path class="cls-1" d="M86.23,47.62l4.73-8.19L69.8,2.77C68.81,1.05,66.98,0,65.01,0h-21.2c-1.98,0-3.8,1.05-4.79,2.76l-3.13,5.43h27.58s22.76,39.43,22.76,39.43Z"/>
      <path class="cls-1" d="M26.63,69.47l22.76-39.43h-9.46s-22.76,39.43-22.76,39.43l21.17,36.66c.99,1.71,2.81,2.76,4.79,2.76h21.2c1.98,0,3.8-1.05,4.79-2.76l3.13-5.43h-27.58s-18.03-31.23-18.03-31.23Z"/>
      <path class="cls-1" d="M31.37,29.9h-9.46S.74,66.56.74,66.56c-.99,1.71-.99,3.82,0,5.53l10.6,18.36c.99,1.71,2.81,2.76,4.79,2.76h6.27s-13.79-23.89-13.79-23.89L31.37,29.9Z"/>
      <path class="cls-1" d="M80.09,70.6h-45.52s4.73,8.19,4.73,8.19h45.52s21.17-36.66,21.17-36.66c.99-1.71.99-3.82,0-5.53l-10.6-18.36c-.99-1.71-2.81-2.76-4.79-2.76h-6.27s13.79,23.89,13.79,23.89l-18.03,31.23Z"/>
      <path class="cls-1" d="M102.77,62.39l-13.79,23.89h-45.52l4.73,8.19h42.33c1.98,0,3.8-1.05,4.79-2.76l10.6-18.36c.99-1.71.99-3.82,0-5.53l-3.13-5.43Z"/>
    </g>
  </g>
</svg>