<?xml version="1.0" encoding="UTF-8"?>
<svg id="Layer_2" data-name="Layer 2" xmlns="http://www.w3.org/2000/svg" viewBox="0 0 121.08 105.39">
  <defs>
    <style>
      .cls-1 {
        fill: #73b6ff;
        stroke-width: 0px;
      }
    </style>
  </defs>
  <g id="Layer_1-2" data-name="Layer 1">
    <g>
      <path class="cls-1" d="M48.67,67.27l-16.82-29.14c-.77-1.33.19-2.99,1.73-2.99h13.37c1.54,0,2.5-1.66,1.73-2.99L31.84,2.99c-.77-1.33-2.69-1.33-3.46,0L.27,51.7c-.36.62-.36,1.38,0,2l29.27,50.7c.36.62,1.02,1,1.73,1h15.67c1.54,0,2.5-1.66,1.73-2.99l-16.82-29.14c-.77-1.33.19-2.99,1.73-2.99h13.37c1.54,0,2.5-1.66,1.73-2.99Z"/>
      <path class="cls-1" d="M72.41,38.12l16.82,29.14c.77,1.33-.19,2.99-1.73,2.99h-13.37c-1.54,0-2.5,1.66-1.73,2.99l16.82,29.14c.77,1.33,2.69,1.33,3.46,0l28.12-48.7c.36-.62.36-1.38,0-2L91.54,1c-.36-.62-1.02-1-1.73-1h-15.67c-1.54,0-2.5,1.66-1.73,2.99l16.82,29.14c.77,1.33-.19,2.99-1.73,2.99h-13.37c-1.54,0-2.5,1.66-1.73,2.99Z"/>
    </g>
  </g>
</svg>