<?xml version="1.0" encoding="UTF-8"?>
<svg id="Layer_2" data-name="Layer 2" xmlns="http://www.w3.org/2000/svg" viewBox="0 0 109.92 108.89">
  <defs>
    <style>
      .cls-1 {
        fill: #00eb8f;
        stroke-width: 0px;
      }
    </style>
  </defs>
  <g id="Layer_1-2" data-name="Layer 1">
    <g>
      <path class="cls-1" d="M56.54.25s.02.01.03.02c0,0,0,0,0,0,0,0-.02-.01-.03-.02Z"/>
      <path class="cls-1" d="M109.8,41.11c-.03-.05-.07-.09-.1-.14h0s-12.37-15.39-12.37-15.39c-.27-.34-.73-.44-1.11-.26l-10.66,4.82L56.57.27h0s-.02-.02-.03-.02c-.05-.06-.11-.1-.17-.13-.03-.02-.06-.03-.08-.04-.05-.03-.1-.05-.15-.06-.03,0-.07-.02-.09-.02-.06,0-.1,0-.16,0h-.09s-.03,0-.05,0c0,0-.01,0-.02,0-.01,0-.02,0-.03,0-.02,0-.05.01-.07.02-.02,0-.04,0-.06.02l-18.33,7.1c-.39.15-.63.55-.59.97l1.28,11.48L.52,37.97c-.28.14-.47.41-.51.73,0,.05,0,.09,0,.14v-.04s0,.1,0,.1c0,0,0,0,0,.01l1.13,19.72c.03.42.33.77.74.86l11.34,2.34,5.89,41.16c.05.32.24.58.53.72l19.28,5.17c.08.02.16.03.24.03.33,0,.64-.18.81-.48l5.74-10.07,40.77,7.09c.06,0,.1,0,.16,0,.26,0,.5-.1.68-.3l11.06-16.7c.22-.35.19-.82-.09-1.13l-7.88-8.63h0s0,0,0,0l19.39-36.68c.15-.28.15-.61,0-.89ZM56.24,2.6l29.65,30.56-31.53.69c-.51,0-.92.43-.91.94l.22,21.56h0s-1.26-.4-1.26-.4l-6.89-2.5-8.46-3.08L56.24,2.6ZM53.68,56.34h0s-.01,0-.01,0h.01ZM52.39,55.94h-.02s-5.27-1.92-5.27-1.92l5.29,1.92ZM2.62,39.01l36.7-18.02,1.52-.74-9.09,30.2c-.15.49.13,1.01.61,1.15l13.48,4.24-13.48-4.23,15.9,4.99,3.44,1.08h-.02s.09.02.09.02l1.18.43h0s-10.85,13.89-10.85,13.89L2.62,39.01ZM20.75,101.3l-6.03-42.14,25.92,17.97c.42.29,1,.19,1.28-.22l12.43-17.48,2.15,2.9,7.84,11.61-43.59,27.37ZM54.36,59.42l2.13,2.86.02.03-2.15-2.89ZM43.44,96.06l25.11-19.09c.4-.32.48-.89.18-1.3l-10.67-14.38-.03-.05s0,0,0,0l-1.95-2.89,2.23-.75.28-.09,14.25-4.07,12.56,49.91-41.96-7.28ZM87.6,80.04l-10.4-29.78c-.13-.38-.49-.62-.88-.62-.1,0-.2.02-.3.05l-18.24,6.13h-.04s0,.01,0,.01h0s-2.19.63-2.19.63h-.02s0,0,0,0h0l.6-17.55,51.37,3.48-19.91,37.65Z"/>
    </g>
  </g>
</svg>