<?xml version="1.0" encoding="UTF-8"?>
<svg id="Layer_2" data-name="Layer 2" xmlns="http://www.w3.org/2000/svg" viewBox="0 0 96.63 108.89">
  <defs>
    <style>
      .cls-1 {
        fill: #a0ec06;
      }
    </style>
  </defs>
  <g id="Layer_1-2" data-name="Layer 1">
    <g>
      <path class="cls-1" d="M16.57,87.36l-11.78-7.73-.83-14.08,13.8-13.8c6.35-6.35,10.58-13.62,12.88-22.27l-3.77-1.1c-2.21,8.1-5.98,14.63-11.87,20.61L.55,63.34c-.37.37-.55.92-.55,1.47l.92,16.01c0,.64.37,1.2.83,1.56l13.44,8.74c.28.18.64.28,1.1.28h.46l8.37-2.3-1.01-3.77-7.55,2.03Z"/>
      <path class="cls-1" d="M89.91,57.26l-2.85,2.76,5.52,5.52-.74,14.08-11.87,7.73-18.77-5.06c-8.65-2.3-17.12-2.3-25.77,0l1.01,3.77c8.1-2.12,15.64-2.12,23.74,0l19.69,5.24c.09.09.28.09.46.09.37,0,.74-.09,1.1-.28l13.34-8.74c.55-.37.83-.92.92-1.56l.83-16.01c.09-.55-.09-1.01-.55-1.47l-6.07-6.08Z"/>
      <path class="cls-1" d="M35.71,10.61l12.61-6.35,12.52,6.35,5.06,18.77c2.39,8.65,6.53,16.01,12.88,22.36l2.76-2.85c-5.89-5.89-9.66-12.42-11.87-20.52l-5.25-19.69c-.09-.55-.46-.92-1.01-1.2L49.14.21c-.55-.28-1.2-.28-1.75,0l-14.26,7.27c-.46.28-.83.65-1.01,1.2l-2.21,8.37,3.77,1.1,2.02-7.55Z"/>
      <path class="cls-1" d="M80.07,21.56l11.78,7.73.83,14.17-13.8,13.71c-6.35,6.35-10.58,13.71-12.88,22.36l3.77,1.01c2.21-8.1,5.98-14.63,11.87-20.61l14.45-14.36c.37-.37.55-.92.55-1.47l-.92-16.01c0-.64-.37-1.2-.83-1.56l-13.44-8.74c-.46-.28-1.01-.37-1.56-.19l-8.37,2.21,1.01,3.77,7.55-2.02Z"/>
      <path class="cls-1" d="M60.92,98.31l-12.61,6.44-12.61-6.44-5.06-18.77c-2.3-8.65-6.44-16.01-12.79-22.36l-2.85,2.85c5.89,5.89,9.76,12.42,11.87,20.52l5.25,19.69c.18.55.55,1.01,1.01,1.2l14.26,7.27c.28.09.64.19.92.19s.64-.09.92-.19l14.26-7.27c.46-.18.83-.64,1.01-1.2l2.21-8.37-3.77-1.01-2.02,7.46Z"/>
      <path class="cls-1" d="M6.72,51.74l2.85-2.85-5.52-5.43.74-14.17,11.78-7.73,18.87,5.06c8.65,2.39,17.12,2.39,25.77,0l-1.01-3.77c-8.1,2.21-15.64,2.21-23.74,0l-19.69-5.25c-.46-.18-1.1-.09-1.56.28L1.84,26.62c-.55.37-.92.92-.92,1.47l-.92,16.01c0,.55.18,1.1.64,1.47l6.07,6.17Z"/>
    </g>
  </g>
</svg>