<?xml version="1.0" encoding="UTF-8"?>
<svg id="Layer_2" xmlns="http://www.w3.org/2000/svg" viewBox="0 0 109.42 108.89">
  <defs>
    <style>
      .cls-1 {
        fill: #ff6333;
        fill-rule: evenodd;
      }
    </style>
  </defs>
  <g id="Layer_1-2" data-name="Layer_1">
    <path class="cls-1" d="M54.71,0c.69,0,1.38.03,2.07.05.43.01.81.26.98.66,3.64,8.39,10.12,16.54,10.12,25.34-.05,4.67-1.83,9.13-4.06,13.52-.45.88.42,1.85,1.35,1.52.21-.07.42-.15.63-.23.26-.1.47-.29.6-.53,2.4-4.65,4.42-9.36,4.42-14.28,0-8.33-5.73-16.06-9.46-23.94-.38-.79.29-1.69,1.16-1.55.74.12,1.47.25,2.2.38.35.06.64.29.79.61,3.72,8.04,9.7,15.94,9.7,24.5,0,2.73-.61,5.4-1.58,8.04-.4,1.08.91,1.98,1.76,1.2.07-.07.15-.14.22-.21,5.91-5.94,7.36-15.44,10.35-23.62.25-.69,1.1-.92,1.68-.49.53.4,1.05.81,1.56,1.23.37.3.49.8.32,1.25-3.3,8.38-4.57,18.53-10.8,24.73-2.62,2.61-5.89,4.31-9.49,5.66-.25.09-.46.27-.58.5-.19.36-.38.71-.57,1.07-.46.88.4,1.85,1.33,1.53,4.39-1.51,8.51-3.38,11.62-6.47,6.09-6.01,7.42-15.83,10.54-24.15.28-.75,1.23-.96,1.8-.4.5.5.99,1,1.47,1.51.29.31.36.75.21,1.14-3.38,8.51-4.58,18.78-10.89,25.01-3.28,3.31-7.71,5.22-12.43,6.77-.94.31-1.01,1.61-.11,2.03.2.09.4.19.6.28.25.12.54.13.8.04,4.99-1.64,9.74-3.53,13.28-7,5.91-5.93,7.32-15.44,10.32-23.58.3-.82,1.39-.98,1.91-.28.44.6.87,1.21,1.3,1.83.21.3.25.67.12,1.01-3.14,8.29-4.49,18.11-10.54,24.13-1.93,1.92-4.24,3.35-6.75,4.52-1.06.49-.74,2.08.42,2.09.07,0,.14,0,.2,0,8.38,0,16.13-5.73,24.05-9.41.66-.31,1.44.13,1.53.85.09.65.17,1.3.23,1.97.05.47-.22.91-.66,1.1-8.3,3.63-16.4,9.92-25.16,9.92-3.69,0-7.27-1.13-10.79-2.66-.23-.1-.49-.12-.74-.05-.38.11-.77.22-1.15.34-.96.28-1.06,1.6-.16,2.04,4.19,2.03,8.43,3.61,12.84,3.61,8.53,0,16.44-6,24.56-9.68.73-.33,1.55.2,1.55,1h0c0,.69,0,1.38-.02,2.08-.01.42-.28.78-.66.95-8.39,3.63-16.58,10.08-25.43,10.08-4.7-.05-9.2-1.83-13.66-4.06-.88-.44-1.84.43-1.51,1.36.08.21.15.42.23.63.1.26.29.47.53.6,4.67,2.39,9.46,4.4,14.41,4.4,8.33,0,16.1-5.72,24.03-9.43.79-.37,1.68.29,1.55,1.15-.11.75-.24,1.48-.39,2.22-.07.34-.3.62-.62.77-8.09,3.7-16.02,9.66-24.57,9.66-2.75,0-5.43-.6-8.06-1.54-1.1-.4-1.99.95-1.17,1.78.05.05.11.11.16.16,5.91,5.88,15.49,7.32,23.69,10.29.69.25.93,1.11.48,1.7-.4.51-.8,1.02-1.2,1.52-.3.38-.8.51-1.25.34-8.47-3.28-18.67-4.54-24.9-10.74-2.57-2.61-4.32-5.86-5.69-9.45-.09-.25-.27-.45-.51-.58-.36-.19-.72-.38-1.09-.57-.88-.45-1.85.41-1.53,1.34,1.52,4.37,3.4,8.47,6.5,11.56,6.09,6.06,15.9,7.38,24.26,10.49.75.28.97,1.24.4,1.81-.5.5-1,.98-1.51,1.45-.31.28-.75.36-1.14.2-8.5-3.37-18.88-4.56-25.13-10.84-3.33-3.27-5.21-7.69-6.76-12.39-.31-.94-1.61-1.01-2.03-.12-.1.21-.19.41-.28.62-.11.25-.13.53-.05.79,1.59,4.97,3.55,9.7,7.04,13.22,5.91,5.88,15.46,7.29,23.64,10.27.82.3.98,1.39.28,1.91-.58.44-1.18.86-1.79,1.29-.29.21-.67.25-1.01.13-8.38-3.13-18.2-4.47-24.25-10.49-1.94-1.93-3.42-4.26-4.61-6.78-.5-1.05-2.08-.73-2.09.43,0,.08,0,.17,0,.25,0,8.33,5.75,16.05,9.45,23.92.31.66-.12,1.44-.85,1.54-.65.09-1.31.17-1.98.23-.47.04-.91-.22-1.1-.65-3.64-8.26-9.97-16.32-9.97-25.04,0-3.66,1.13-7.21,2.71-10.71.11-.25.13-.53.04-.79-.12-.37-.24-.73-.35-1.1-.29-.95-1.59-1.04-2.03-.15-2.04,4.16-3.61,8.37-3.61,12.75,0,8.19,5.57,15.82,9.28,23.61-.78,1.22-.74,1.16-1.52,2.38-.39,0-.79,0-1.18-.02-.42-.01-.78-.28-.95-.66-3.64-8.35-10.07-16.5-10.07-25.31,0-4.67,1.78-9.14,4.01-13.58.44-.88-.42-1.85-1.35-1.52-.2.07-.41.15-.61.23-.25.1-.45.28-.58.52-2.45,4.66-4.43,9.42-4.43,14.35,0,8.28,5.74,16.02,9.43,23.91.37.79-.29,1.68-1.15,1.55-.75-.11-1.5-.24-2.25-.39-.34-.07-.63-.3-.77-.62-3.67-8.05-9.71-15.94-9.71-24.45,0-2.73.62-5.37,1.56-7.98.4-1.11-.98-2.01-1.8-1.16-.04.04-.07.08-.11.12-5.96,5.88-7.37,15.42-10.34,23.59-.25.69-1.11.92-1.69.48-.52-.4-1.03-.8-1.54-1.19-.38-.3-.51-.81-.34-1.26,3.29-8.43,4.56-18.58,10.73-24.77,2.62-2.56,5.95-4.31,9.5-5.67.24-.09.44-.27.57-.49.19-.35.39-.7.58-1.06.47-.87-.38-1.87-1.32-1.55-4.42,1.51-8.53,3.38-11.64,6.47-6.03,6.05-7.41,15.81-10.53,24.13-.28.75-1.24.96-1.81.39-.48-.48-.96-.97-1.44-1.47-.3-.31-.38-.77-.22-1.17,3.38-8.45,4.63-18.77,10.88-24.99,3.33-3.31,7.77-5.18,12.49-6.72.94-.31,1.02-1.62.11-2.03-.21-.09-.41-.19-.62-.28-.25-.11-.52-.13-.78-.05-5.05,1.59-9.8,3.53-13.29,7.01-5.92,5.89-7.38,15.41-10.35,23.56-.3.81-1.38.98-1.9.29-.46-.6-.89-1.21-1.31-1.83-.2-.29-.24-.66-.11-.99,3.09-8.34,4.44-18.12,10.49-24.14,1.94-1.93,4.26-3.39,6.8-4.58,1.05-.49.74-2.08-.42-2.09-.07,0-.13,0-.2,0-8.38,0-16.18,5.73-24.11,9.41-.66.31-1.43-.13-1.53-.85-.09-.65-.17-1.3-.23-1.97-.05-.47.22-.91.66-1.1,8.3-3.63,16.4-9.92,25.21-9.92,3.68,0,7.25,1.12,10.71,2.7.25.11.53.13.78.04.37-.12.73-.23,1.09-.35.95-.29,1.05-1.59.15-2.03-4.16-2.02-8.35-3.59-12.74-3.59-8.6,0-16.53,5.97-24.62,9.64C.83,55.79,0,55.27,0,54.47c0,0,0-.02,0-.03,0-.68.03-1.37.05-2.05.01-.43.26-.81.66-.98,8.44-3.62,16.62-10.02,25.46-10.02,4.69,0,9.17,1.77,13.59,3.98.88.44,1.85-.43,1.51-1.35-.07-.2-.15-.39-.22-.58-.1-.25-.28-.45-.52-.58-4.68-2.44-9.41-4.41-14.37-4.41-8.38,0-16.15,5.71-24.07,9.38-.79.37-1.68-.3-1.54-1.16.12-.74.25-1.47.38-2.19.06-.35.3-.64.62-.79,8.08-3.65,16.01-9.66,24.61-9.66,2.73,0,5.4.63,8.04,1.58,1.09.39,1.99-.95,1.18-1.78-.05-.05-.1-.1-.15-.15-5.97-5.94-15.52-7.33-23.73-10.3-.69-.25-.93-1.1-.49-1.68.4-.54.81-1.06,1.24-1.57.3-.36.79-.47,1.23-.3,8.42,3.29,18.64,4.55,24.87,10.69,2.62,2.61,4.33,5.92,5.69,9.46.09.24.27.44.5.57.36.19.72.39,1.07.58.88.47,1.87-.39,1.55-1.33-1.51-4.39-3.4-8.49-6.5-11.57-6.03-6-15.88-7.37-24.23-10.48-.75-.28-.96-1.24-.39-1.81.48-.48.97-.95,1.47-1.43.31-.3.76-.38,1.16-.22,8.55,3.36,18.87,4.61,25.12,10.84,3.33,3.31,5.25,7.74,6.81,12.44.31.94,1.6,1,2.03.11.1-.2.19-.4.28-.61.12-.25.13-.54.05-.81-1.64-5.02-3.54-9.74-7.03-13.21-5.96-5.88-15.53-7.34-23.71-10.29-.83-.3-.98-1.4-.27-1.92.61-.45,1.23-.88,1.86-1.29.29-.19.65-.23.97-.11,8.33,3.08,18.21,4.42,24.27,10.44,1.93,1.92,3.37,4.23,4.55,6.76.49,1.06,2.08.74,2.09-.42,0-.06,0-.12,0-.18,0-8.33-5.75-16.1-9.45-23.98-.31-.66.12-1.44.85-1.54.65-.09,1.31-.17,1.98-.23.47-.04.91.22,1.1.65,3.64,8.26,9.97,16.32,9.97,25.09,0,3.67-1.13,7.22-2.67,10.67-.1.24-.12.5-.05.75.11.39.23.77.34,1.16.29.95,1.59,1.06,2.03.16,2.05-4.16,3.64-8.35,3.64-12.74,0-8.55-6.04-16.44-9.74-24.49C53.36.83,53.89,0,54.69,0c0,0,.02,0,.03,0h0Z"/>
  </g>
</svg>